# xmcd
#
# Track frame offsets:
#	150
#	16070
#	32227
#	49997
#	64067
#	77722
#	93600
#	109122
#	127882
#	148932
#	168290
#
# Disc length: 2453 seconds
#
# Revision: 1
# Processed by: cddbd v1.5.2PL0 Copyright (c) Steve Scherf et al.
# Submitted via: audiograbber 1.83.01
#
DISCID=9109930b
DTITLE=Billie Holiday With Ray Ellis and His Orchastra - Lady In Satin
DYEAR=1991
DGENRE=Blues
TTITLE0=I'm A Fool To Want You
TTITLE1=For Heaven's Sake
TTITLE2=You Don't Know What Love Is
TTITLE3=I Get Along Without You Very Well
TTITLE4=For All We Know
TTITLE5=Violets For Your Furs
TTITLE6=You've Changed
TTITLE7=It's Easy To Remember
TTITLE8=But Beautiful
TTITLE9=Glad To Be Unhappy
TTITLE10=I'll Be Around
EXTD=
EXTT0=
EXTT1=
EXTT2=
EXTT3=
EXTT4=
EXTT5=
EXTT6=
EXTT7=
EXTT8=
EXTT9=
EXTT10=
PLAYORDER=
